# xmcd
#
# Track frame offsets:
# 150
# 16488
# 36238
# 57632
# 71098
# 88312
# 107856
# 125474
# 146876
#
# Disc length: 2245 seconds
#
# Revision: 0
# Processed by: cddbd v1.4PL0 Copyright (c) Steve Scherf et al.
# Submitted via: Audion 3.0.2 (http://www.panic.com/audion/)
#
DISCID=8d08c309
DTITLE=Lisa Friend - Lisa Friend
DYEAR=1900
DGENRE=
TTITLE0=pride
TTITLE1=film
TTITLE2=broken
TTITLE3=because of you
TTITLE4=nightfall
TTITLE5=who wants to live forever
TTITLE6=deep in my soul
TTITLE7=innocent child
TTITLE8=no con certo
EXTD=
EXTT0=
EXTT1=
EXTT2=
EXTT3=
EXTT4=
EXTT5=
EXTT6=
EXTT7=
EXTT8=
PLAYORDER=
